<?xml version="1.0" encoding="utf-8"?>
<!-- Generator: Adobe Illustrator 22.0.1, SVG Export Plug-In . SVG Version: 6.00 Build 0)  -->
<svg version="1.1" id="Layer_1" xmlns="http://www.w3.org/2000/svg" xmlns:xlink="http://www.w3.org/1999/xlink" x="0px" y="0px"
	 viewBox="0 0 100 51.8" style="enable-background:new 0 0 100 51.8;" xml:space="preserve">
<style type="text/css">
	.st0{fill:#FFFFFF;}
</style>
<path class="st0" d="M62.3,43.3c-9.4,0-18.7,0-28.1,0c-0.1,0.2-0.2,0.5-0.2,0.7c-1.5,4.3-5.5,7.1-10,7c-4.5,0-8.4-2.9-9.8-7.1
	c-0.2-0.5-0.4-0.6-0.9-0.6c-2.5,0-4.9,0-7.4,0c-0.3,0-0.5,0-0.8,0c-1.8-0.1-2.9-1.1-3.1-2.9C1.7,36.2,1.6,32,1.7,27.8
	c0.2-4.8,0.6-9.6,1.9-14.3C4.4,10.8,5.4,8.2,7.1,6c2-2.7,4.7-4.1,8.2-4.1c24.5,0,49,0,73.5,0c0.8,0,1.5,0,2.3,0.2
	c3,0.5,4.6,2.3,5.2,5.1c0.3,1.4,0.5,2.8,0.5,4.2c0,9.5,0,18.9,0,28.4c0,2.4-1.3,3.6-3.7,3.6c-3.3,0-6.6,0-9.9,0
	c-0.4,0-0.6,0.1-0.7,0.5c-1.5,4.4-5.5,7.2-10,7.2c-4.5,0-8.5-2.9-10-7.2C62.5,43.6,62.4,43.5,62.3,43.3z M29.3,6.1
	c-0.3,0-0.5,0-0.7,0c-4.1,0-8.3,0.1-12.4,0c-2.6-0.1-4.5,1.1-5.8,3.2c-0.9,1.4-1.5,3-2,4.6c-1.5,5.5-1.6,11-1.4,16.6
	c0,1.4,0.6,1.7,1.8,1.2c0.4-0.1,0.7-0.3,1-0.5c0.7-0.5,1.4-0.9,2-1.5c2.4-2,4.8-4.1,7.3-6c2.6-2.1,5.5-3.8,8.8-4.7
	c0.5-0.1,1-0.2,1.4-0.3C29.3,14.4,29.3,10.3,29.3,6.1z M74.8,18.4c0.1,0,0.2,0,0.2,0c5.5,0,11,0,16.4,0c0.7,0,1-0.3,1-1
	c0-2.5,0-4.9-0.1-7.4c0-0.8-0.2-1.5-0.4-2.3C91.6,6.9,91,6.4,90,6.2c-0.4-0.1-0.8-0.1-1.2-0.1c-4.5,0-8.9,0-13.4,0
	c-0.2,0-0.4,0-0.6,0C74.8,10.2,74.8,14.3,74.8,18.4z M33.9,6.1c0,4.1,0,8.2,0,12.3c5.3,0,10.6,0,15.9,0c0-4.1,0-8.2,0-12.3
	C44.5,6.1,39.2,6.1,33.9,6.1z M70.2,18.4c0-4.1,0-8.2,0-12.3c-5.3,0-10.6,0-15.9,0c0,4.1,0,8.2,0,12.3C59.7,18.4,65,18.4,70.2,18.4z
	 M72.5,46.3c3.2,0,5.9-2.6,5.8-5.9c0-3.2-2.6-5.8-5.8-5.8c-3.2,0-5.9,2.6-5.9,5.8C66.6,43.7,69.2,46.3,72.5,46.3z M24.1,46.3
	c3.2,0,5.8-2.6,5.8-5.8c0-3.2-2.6-5.9-5.8-5.9c-3.2,0-5.9,2.6-5.9,5.8C18.3,43.7,20.9,46.3,24.1,46.3z"/>
</svg>
