<?xml version="1.0" encoding="utf-8"?>
<!-- Generator: Adobe Illustrator 22.0.1, SVG Export Plug-In . SVG Version: 6.00 Build 0)  -->
<svg version="1.1" id="Layer_1" xmlns="http://www.w3.org/2000/svg" xmlns:xlink="http://www.w3.org/1999/xlink" x="0px" y="0px"
	 viewBox="0 0 612 518" style="enable-background:new 0 0 612 518;" xml:space="preserve">
<style type="text/css">
	.st0{fill:#FFFFFF;}
</style>
<path class="st0" d="M605.3,177.1c-3.4-11.3-10.5-16.8-22.3-16.8c-16.5,0-33.1-0.2-49.6,0.2c-4.2,0.1-6.2-1.4-7.9-5
	c-6.2-12.8-12.3-25.7-19.2-38.1c-19-33.8-44.5-61.5-78.3-81.1c-24.9-14.4-51.7-23.1-80.1-27c-8.5-1.2-17-1.7-25.5-2.5
	c-0.8-0.1-1.5-0.3-2.3-0.5c-8.4,0-16.7,0-25.1,0c-6.5,0.6-13.1,1.1-19.6,1.8c-42.2,4.6-80.7,18.3-114.2,45.1
	c-24.3,19.5-43,43.6-57.5,71c-5.4,10.2-10.3,20.6-15.3,31.1c-1.8,3.8-4,5.3-8.4,5.2c-16.1-0.3-32.3-0.1-48.4-0.1
	c-12.7,0-19.4,4.9-23.3,17.1c-0.1,0.2-0.2,0.3-0.4,0.4c0,7,0,13.9,0,20.9c5,13.2,16,17.3,28.8,18.4c4.1,0.4,8.3,0.1,13.1,0.1
	c-0.7,0.8-1.1,1.2-1.5,1.6c-12.1,11.6-18.1,25.9-18.1,42.4c-0.1,75.6,0,151.1,0,226.7c0,11.9,5.8,19.4,18,24h81.1v-0.2
	c0.9-0.3,1.5-0.6,2.2-0.8c10-3.2,16.3-11.7,16.3-22.2c0.1-12.5,0-25.1,0-37.6c0-1.1,0-2.2,0-3.5c106,0,211.8,0,318.1,0
	c0,13.3,0,26.3,0,39.4c0,12.9,5.8,20.8,18.8,24.8v0.2h80.4c0-0.1-0.1-0.2-0.1-0.3c1.2-0.4,2.4-0.7,3.6-1.2
	c9.3-3.5,14.8-11.9,14.8-22.7c0-51.9,0.1-103.7,0.1-155.6c0-22.1-0.2-44.2,0.1-66.3c0.2-18.8-5.4-35-19.8-48.6c1.6,0,2.8,0.1,3.9,0
	c6.3-0.5,12.8-0.3,18.9-1.8c9-2.2,16.1-7.3,19.1-16.7c0-7,0-13.9,0-20.9C605.6,177.6,605.4,177.4,605.3,177.1z M127.4,196.1
	c3.8-8.7,7.4-17.6,10.9-26.5c6.7-17.1,14.1-33.8,24.2-49.2c22.9-35.1,55.1-56.5,95.9-65.2c34.5-7.3,69.1-7,103.4,1.5
	c43.9,10.9,76.1,37.1,97.2,76.8c6.7,12.6,11.9,26,17.6,39.2c4.6,10.7,7.7,22.1,15.1,31.8c-123.3,0-246.3,0-369.4,0
	C124,201.8,126.1,199.1,127.4,196.1z M114.9,329c-21.3,0.1-39.3-17.7-39.3-38.8c0-21.3,18-38.8,39.9-38.8
	c22.2,0,40.2,17.3,40.2,38.8C155.7,311.9,137.8,328.9,114.9,329z M497.9,329c-22-0.1-39.8-17.5-39.8-38.9
	c0.1-21.5,18-38.8,40.2-38.7c22,0.1,39.9,17.6,39.8,38.9C538.1,311.7,520,329.1,497.9,329z"/>
</svg>
